<mxfile host="app.diagrams.net" modified="2024-02-23T19:02:37.299Z" agent="Mozilla/5.0 (Windows NT 10.0; Win64; x64) AppleWebKit/537.36 (KHTML, like Gecko) Chrome/121.0.0.0 Safari/537.36" etag="60avVYU-PUOeQPXCMCqM" version="23.1.6" type="device">
  <diagram name="Page-1" id="DJ9qgCi5V4KrWlo1G7NN">
    <mxGraphModel dx="1400" dy="1796" grid="1" gridSize="10" guides="1" tooltips="1" connect="1" arrows="1" fold="1" page="1" pageScale="1" pageWidth="850" pageHeight="1100" math="0" shadow="0">
      <root>
        <mxCell id="0" />
        <mxCell id="1" parent="0" />
        <mxCell id="LuI5FTJY5WwARPnOgoLh-7" style="edgeStyle=orthogonalEdgeStyle;rounded=0;orthogonalLoop=1;jettySize=auto;html=1;exitX=1;exitY=0.5;exitDx=0;exitDy=0;entryX=0;entryY=0.5;entryDx=0;entryDy=0;" edge="1" parent="1" source="LuI5FTJY5WwARPnOgoLh-1" target="LuI5FTJY5WwARPnOgoLh-2">
          <mxGeometry relative="1" as="geometry" />
        </mxCell>
        <mxCell id="LuI5FTJY5WwARPnOgoLh-8" style="edgeStyle=orthogonalEdgeStyle;rounded=0;orthogonalLoop=1;jettySize=auto;html=1;exitX=0.5;exitY=0;exitDx=0;exitDy=0;entryX=0;entryY=0.5;entryDx=0;entryDy=0;" edge="1" parent="1" source="LuI5FTJY5WwARPnOgoLh-1" target="LuI5FTJY5WwARPnOgoLh-3">
          <mxGeometry relative="1" as="geometry" />
        </mxCell>
        <mxCell id="LuI5FTJY5WwARPnOgoLh-9" style="edgeStyle=orthogonalEdgeStyle;rounded=0;orthogonalLoop=1;jettySize=auto;html=1;exitX=0.5;exitY=0;exitDx=0;exitDy=0;entryX=0;entryY=0.5;entryDx=0;entryDy=0;" edge="1" parent="1" source="LuI5FTJY5WwARPnOgoLh-1" target="LuI5FTJY5WwARPnOgoLh-4">
          <mxGeometry relative="1" as="geometry" />
        </mxCell>
        <mxCell id="LuI5FTJY5WwARPnOgoLh-10" style="edgeStyle=orthogonalEdgeStyle;rounded=0;orthogonalLoop=1;jettySize=auto;html=1;exitX=0.5;exitY=1;exitDx=0;exitDy=0;entryX=0;entryY=0.5;entryDx=0;entryDy=0;" edge="1" parent="1" source="LuI5FTJY5WwARPnOgoLh-1" target="LuI5FTJY5WwARPnOgoLh-5">
          <mxGeometry relative="1" as="geometry" />
        </mxCell>
        <mxCell id="LuI5FTJY5WwARPnOgoLh-67" style="edgeStyle=orthogonalEdgeStyle;rounded=0;orthogonalLoop=1;jettySize=auto;html=1;exitX=0.5;exitY=1;exitDx=0;exitDy=0;entryX=0.5;entryY=1;entryDx=0;entryDy=0;" edge="1" parent="1" source="LuI5FTJY5WwARPnOgoLh-1" target="LuI5FTJY5WwARPnOgoLh-12">
          <mxGeometry relative="1" as="geometry">
            <Array as="points">
              <mxPoint x="140" y="880" />
              <mxPoint x="1100" y="880" />
            </Array>
          </mxGeometry>
        </mxCell>
        <mxCell id="LuI5FTJY5WwARPnOgoLh-69" style="edgeStyle=orthogonalEdgeStyle;rounded=0;orthogonalLoop=1;jettySize=auto;html=1;exitX=0.5;exitY=1;exitDx=0;exitDy=0;entryX=0;entryY=0.5;entryDx=0;entryDy=0;" edge="1" parent="1" source="LuI5FTJY5WwARPnOgoLh-1" target="LuI5FTJY5WwARPnOgoLh-68">
          <mxGeometry relative="1" as="geometry" />
        </mxCell>
        <mxCell id="LuI5FTJY5WwARPnOgoLh-1" value="&lt;font style=&quot;font-size: 18px;&quot;&gt;Start&lt;/font&gt;" style="shape=ellipse;html=1;dashed=0;whiteSpace=wrap;aspect=fixed;perimeter=ellipsePerimeter;" vertex="1" parent="1">
          <mxGeometry x="80" y="360" width="120" height="120" as="geometry" />
        </mxCell>
        <mxCell id="LuI5FTJY5WwARPnOgoLh-46" style="edgeStyle=orthogonalEdgeStyle;rounded=0;orthogonalLoop=1;jettySize=auto;html=1;exitX=1;exitY=0.5;exitDx=0;exitDy=0;entryX=0;entryY=0.5;entryDx=0;entryDy=0;" edge="1" parent="1" source="LuI5FTJY5WwARPnOgoLh-2" target="LuI5FTJY5WwARPnOgoLh-12">
          <mxGeometry relative="1" as="geometry" />
        </mxCell>
        <mxCell id="LuI5FTJY5WwARPnOgoLh-64" style="edgeStyle=orthogonalEdgeStyle;rounded=0;orthogonalLoop=1;jettySize=auto;html=1;exitX=0.5;exitY=0;exitDx=0;exitDy=0;entryX=0;entryY=0.5;entryDx=0;entryDy=0;" edge="1" parent="1" source="LuI5FTJY5WwARPnOgoLh-2" target="LuI5FTJY5WwARPnOgoLh-63">
          <mxGeometry relative="1" as="geometry" />
        </mxCell>
        <mxCell id="LuI5FTJY5WwARPnOgoLh-2" value="&lt;font style=&quot;font-size: 18px;&quot;&gt;id&lt;/font&gt;" style="shape=ellipse;html=1;dashed=0;whiteSpace=wrap;aspect=fixed;perimeter=ellipsePerimeter;" vertex="1" parent="1">
          <mxGeometry x="320" y="360" width="120" height="120" as="geometry" />
        </mxCell>
        <mxCell id="LuI5FTJY5WwARPnOgoLh-24" style="edgeStyle=orthogonalEdgeStyle;rounded=0;orthogonalLoop=1;jettySize=auto;html=1;exitX=1;exitY=0;exitDx=0;exitDy=0;entryX=1;entryY=1;entryDx=0;entryDy=0;" edge="1" parent="1" source="LuI5FTJY5WwARPnOgoLh-3" target="LuI5FTJY5WwARPnOgoLh-23">
          <mxGeometry relative="1" as="geometry" />
        </mxCell>
        <mxCell id="LuI5FTJY5WwARPnOgoLh-49" style="edgeStyle=orthogonalEdgeStyle;rounded=0;orthogonalLoop=1;jettySize=auto;html=1;exitX=1;exitY=0.5;exitDx=0;exitDy=0;entryX=0.5;entryY=0;entryDx=0;entryDy=0;" edge="1" parent="1" source="LuI5FTJY5WwARPnOgoLh-3" target="LuI5FTJY5WwARPnOgoLh-12">
          <mxGeometry relative="1" as="geometry" />
        </mxCell>
        <mxCell id="LuI5FTJY5WwARPnOgoLh-3" value="&lt;font style=&quot;font-size: 18px;&quot;&gt;string&lt;/font&gt;" style="shape=ellipse;html=1;dashed=0;whiteSpace=wrap;aspect=fixed;perimeter=ellipsePerimeter;" vertex="1" parent="1">
          <mxGeometry x="320" y="120" width="120" height="120" as="geometry" />
        </mxCell>
        <mxCell id="LuI5FTJY5WwARPnOgoLh-32" style="edgeStyle=orthogonalEdgeStyle;rounded=0;orthogonalLoop=1;jettySize=auto;html=1;exitX=0.5;exitY=0;exitDx=0;exitDy=0;entryX=0;entryY=0.5;entryDx=0;entryDy=0;" edge="1" parent="1" source="LuI5FTJY5WwARPnOgoLh-4" target="LuI5FTJY5WwARPnOgoLh-31">
          <mxGeometry relative="1" as="geometry" />
        </mxCell>
        <mxCell id="LuI5FTJY5WwARPnOgoLh-35" style="edgeStyle=orthogonalEdgeStyle;rounded=0;orthogonalLoop=1;jettySize=auto;html=1;exitX=0.5;exitY=1;exitDx=0;exitDy=0;entryX=0;entryY=0.5;entryDx=0;entryDy=0;" edge="1" parent="1" source="LuI5FTJY5WwARPnOgoLh-4" target="LuI5FTJY5WwARPnOgoLh-34">
          <mxGeometry relative="1" as="geometry" />
        </mxCell>
        <mxCell id="LuI5FTJY5WwARPnOgoLh-58" style="edgeStyle=orthogonalEdgeStyle;rounded=0;orthogonalLoop=1;jettySize=auto;html=1;exitX=1;exitY=0.5;exitDx=0;exitDy=0;" edge="1" parent="1" source="LuI5FTJY5WwARPnOgoLh-4" target="LuI5FTJY5WwARPnOgoLh-12">
          <mxGeometry relative="1" as="geometry" />
        </mxCell>
        <mxCell id="LuI5FTJY5WwARPnOgoLh-4" value="&lt;font style=&quot;font-size: 18px;&quot;&gt;symbol/&lt;/font&gt;" style="shape=ellipse;html=1;dashed=0;whiteSpace=wrap;aspect=fixed;perimeter=ellipsePerimeter;" vertex="1" parent="1">
          <mxGeometry x="320" y="-440" width="120" height="120" as="geometry" />
        </mxCell>
        <mxCell id="LuI5FTJY5WwARPnOgoLh-47" style="edgeStyle=orthogonalEdgeStyle;rounded=0;orthogonalLoop=1;jettySize=auto;html=1;exitX=1;exitY=0.5;exitDx=0;exitDy=0;entryX=0.5;entryY=1;entryDx=0;entryDy=0;" edge="1" parent="1" source="LuI5FTJY5WwARPnOgoLh-5" target="LuI5FTJY5WwARPnOgoLh-12">
          <mxGeometry relative="1" as="geometry" />
        </mxCell>
        <mxCell id="LuI5FTJY5WwARPnOgoLh-61" style="edgeStyle=orthogonalEdgeStyle;rounded=0;orthogonalLoop=1;jettySize=auto;html=1;exitX=0.5;exitY=0;exitDx=0;exitDy=0;entryX=0;entryY=0.5;entryDx=0;entryDy=0;" edge="1" parent="1" source="LuI5FTJY5WwARPnOgoLh-5" target="LuI5FTJY5WwARPnOgoLh-60">
          <mxGeometry relative="1" as="geometry" />
        </mxCell>
        <mxCell id="LuI5FTJY5WwARPnOgoLh-5" value="&lt;font style=&quot;font-size: 18px;&quot;&gt;int&lt;/font&gt;" style="shape=ellipse;html=1;dashed=0;whiteSpace=wrap;aspect=fixed;perimeter=ellipsePerimeter;" vertex="1" parent="1">
          <mxGeometry x="320" y="600" width="120" height="120" as="geometry" />
        </mxCell>
        <mxCell id="LuI5FTJY5WwARPnOgoLh-71" style="edgeStyle=orthogonalEdgeStyle;rounded=0;orthogonalLoop=1;jettySize=auto;html=1;exitX=1;exitY=0.5;exitDx=0;exitDy=0;entryX=0;entryY=0.5;entryDx=0;entryDy=0;" edge="1" parent="1" source="LuI5FTJY5WwARPnOgoLh-12" target="LuI5FTJY5WwARPnOgoLh-1">
          <mxGeometry relative="1" as="geometry">
            <Array as="points">
              <mxPoint x="1180" y="420" />
              <mxPoint x="1180" y="1080" />
              <mxPoint x="60" y="1080" />
              <mxPoint x="60" y="420" />
            </Array>
          </mxGeometry>
        </mxCell>
        <mxCell id="LuI5FTJY5WwARPnOgoLh-12" value="&lt;font style=&quot;font-size: 18px;&quot;&gt;Done&lt;/font&gt;" style="ellipse;shape=doubleEllipse;html=1;dashed=0;whiteSpace=wrap;aspect=fixed;" vertex="1" parent="1">
          <mxGeometry x="1040" y="360" width="120" height="120" as="geometry" />
        </mxCell>
        <mxCell id="LuI5FTJY5WwARPnOgoLh-13" value="&lt;font style=&quot;font-size: 18px;&quot;&gt;L,_&lt;/font&gt;" style="text;html=1;align=center;verticalAlign=middle;whiteSpace=wrap;rounded=0;" vertex="1" parent="1">
          <mxGeometry x="220" y="380" width="60" height="30" as="geometry" />
        </mxCell>
        <mxCell id="LuI5FTJY5WwARPnOgoLh-14" value="&lt;font style=&quot;font-size: 18px;&quot;&gt;&quot;&lt;/font&gt;" style="text;html=1;align=center;verticalAlign=middle;whiteSpace=wrap;rounded=0;" vertex="1" parent="1">
          <mxGeometry x="210" y="140" width="60" height="30" as="geometry" />
        </mxCell>
        <mxCell id="LuI5FTJY5WwARPnOgoLh-15" value="&lt;font style=&quot;font-size: 18px;&quot;&gt;/&lt;/font&gt;" style="text;html=1;align=center;verticalAlign=middle;whiteSpace=wrap;rounded=0;" vertex="1" parent="1">
          <mxGeometry x="210" y="-410" width="60" height="30" as="geometry" />
        </mxCell>
        <mxCell id="LuI5FTJY5WwARPnOgoLh-16" value="&lt;font style=&quot;font-size: 18px;&quot;&gt;D&lt;/font&gt;" style="text;html=1;align=center;verticalAlign=middle;whiteSpace=wrap;rounded=0;" vertex="1" parent="1">
          <mxGeometry x="210" y="630" width="60" height="30" as="geometry" />
        </mxCell>
        <mxCell id="LuI5FTJY5WwARPnOgoLh-17" value="&lt;font style=&quot;font-size: 18px;&quot;&gt;{,},(,),[,],.&#39;,&#39;,;,+,-,*,/,&amp;amp;,|,&amp;lt;,&amp;gt;,=,~,LR,CR&lt;/font&gt;" style="text;html=1;align=center;verticalAlign=middle;whiteSpace=wrap;rounded=0;" vertex="1" parent="1">
          <mxGeometry x="560" y="800" width="140" height="70" as="geometry" />
        </mxCell>
        <mxCell id="LuI5FTJY5WwARPnOgoLh-18" style="edgeStyle=orthogonalEdgeStyle;rounded=0;orthogonalLoop=1;jettySize=auto;html=1;exitX=1;exitY=1;exitDx=0;exitDy=0;entryX=0.5;entryY=1;entryDx=0;entryDy=0;" edge="1" parent="1" source="LuI5FTJY5WwARPnOgoLh-2" target="LuI5FTJY5WwARPnOgoLh-2">
          <mxGeometry relative="1" as="geometry">
            <Array as="points">
              <mxPoint x="460" y="462" />
              <mxPoint x="460" y="520" />
              <mxPoint x="380" y="520" />
            </Array>
          </mxGeometry>
        </mxCell>
        <mxCell id="LuI5FTJY5WwARPnOgoLh-19" value="&lt;font style=&quot;font-size: 18px;&quot;&gt;L,_,D&lt;/font&gt;" style="text;html=1;align=center;verticalAlign=middle;whiteSpace=wrap;rounded=0;" vertex="1" parent="1">
          <mxGeometry x="390" y="490" width="60" height="30" as="geometry" />
        </mxCell>
        <mxCell id="LuI5FTJY5WwARPnOgoLh-20" style="edgeStyle=orthogonalEdgeStyle;rounded=0;orthogonalLoop=1;jettySize=auto;html=1;exitX=1;exitY=1;exitDx=0;exitDy=0;entryX=0.5;entryY=1;entryDx=0;entryDy=0;" edge="1" parent="1" source="LuI5FTJY5WwARPnOgoLh-5" target="LuI5FTJY5WwARPnOgoLh-5">
          <mxGeometry relative="1" as="geometry">
            <Array as="points">
              <mxPoint x="422" y="700" />
              <mxPoint x="460" y="700" />
              <mxPoint x="460" y="750" />
              <mxPoint x="380" y="750" />
            </Array>
          </mxGeometry>
        </mxCell>
        <mxCell id="LuI5FTJY5WwARPnOgoLh-21" value="&lt;font style=&quot;font-size: 18px;&quot;&gt;D&lt;/font&gt;" style="text;html=1;align=center;verticalAlign=middle;whiteSpace=wrap;rounded=0;" vertex="1" parent="1">
          <mxGeometry x="395" y="720" width="60" height="30" as="geometry" />
        </mxCell>
        <mxCell id="LuI5FTJY5WwARPnOgoLh-25" style="edgeStyle=orthogonalEdgeStyle;rounded=0;orthogonalLoop=1;jettySize=auto;html=1;exitX=0;exitY=1;exitDx=0;exitDy=0;entryX=0;entryY=0;entryDx=0;entryDy=0;" edge="1" parent="1" source="LuI5FTJY5WwARPnOgoLh-23" target="LuI5FTJY5WwARPnOgoLh-3">
          <mxGeometry relative="1" as="geometry" />
        </mxCell>
        <mxCell id="LuI5FTJY5WwARPnOgoLh-23" value="&lt;font style=&quot;font-size: 18px;&quot;&gt;escape&lt;/font&gt;" style="shape=ellipse;html=1;dashed=0;whiteSpace=wrap;aspect=fixed;perimeter=ellipsePerimeter;" vertex="1" parent="1">
          <mxGeometry x="320" y="-120" width="120" height="120" as="geometry" />
        </mxCell>
        <mxCell id="LuI5FTJY5WwARPnOgoLh-26" value="&lt;font style=&quot;font-size: 18px;&quot;&gt;else&lt;/font&gt;" style="text;html=1;align=center;verticalAlign=middle;whiteSpace=wrap;rounded=0;" vertex="1" parent="1">
          <mxGeometry x="280" y="40" width="60" height="30" as="geometry" />
        </mxCell>
        <mxCell id="LuI5FTJY5WwARPnOgoLh-27" value="&lt;font style=&quot;font-size: 18px;&quot;&gt;\&lt;/font&gt;" style="text;html=1;align=center;verticalAlign=middle;whiteSpace=wrap;rounded=0;" vertex="1" parent="1">
          <mxGeometry x="420" y="50" width="60" height="30" as="geometry" />
        </mxCell>
        <mxCell id="LuI5FTJY5WwARPnOgoLh-28" style="edgeStyle=orthogonalEdgeStyle;rounded=0;orthogonalLoop=1;jettySize=auto;html=1;exitX=1;exitY=1;exitDx=0;exitDy=0;entryX=0.5;entryY=1;entryDx=0;entryDy=0;" edge="1" parent="1" source="LuI5FTJY5WwARPnOgoLh-3" target="LuI5FTJY5WwARPnOgoLh-3">
          <mxGeometry relative="1" as="geometry">
            <Array as="points">
              <mxPoint x="422" y="220" />
              <mxPoint x="460" y="220" />
              <mxPoint x="460" y="270" />
              <mxPoint x="380" y="270" />
            </Array>
          </mxGeometry>
        </mxCell>
        <mxCell id="LuI5FTJY5WwARPnOgoLh-29" value="&lt;font style=&quot;font-size: 18px;&quot;&gt;else&lt;/font&gt;" style="text;html=1;align=center;verticalAlign=middle;whiteSpace=wrap;rounded=0;" vertex="1" parent="1">
          <mxGeometry x="395" y="240" width="60" height="30" as="geometry" />
        </mxCell>
        <mxCell id="LuI5FTJY5WwARPnOgoLh-51" style="edgeStyle=orthogonalEdgeStyle;rounded=0;orthogonalLoop=1;jettySize=auto;html=1;exitX=1;exitY=0.5;exitDx=0;exitDy=0;" edge="1" parent="1" source="LuI5FTJY5WwARPnOgoLh-31">
          <mxGeometry relative="1" as="geometry">
            <mxPoint x="1100" y="365.3333333333333" as="targetPoint" />
          </mxGeometry>
        </mxCell>
        <mxCell id="LuI5FTJY5WwARPnOgoLh-31" value="&lt;font style=&quot;font-size: 18px;&quot;&gt;slc&lt;/font&gt;" style="shape=ellipse;html=1;dashed=0;whiteSpace=wrap;aspect=fixed;perimeter=ellipsePerimeter;" vertex="1" parent="1">
          <mxGeometry x="480" y="-600" width="120" height="120" as="geometry" />
        </mxCell>
        <mxCell id="LuI5FTJY5WwARPnOgoLh-33" value="&lt;font style=&quot;font-size: 18px;&quot;&gt;/&lt;/font&gt;" style="text;html=1;align=center;verticalAlign=middle;whiteSpace=wrap;rounded=0;" vertex="1" parent="1">
          <mxGeometry x="395" y="-570" width="60" height="30" as="geometry" />
        </mxCell>
        <mxCell id="LuI5FTJY5WwARPnOgoLh-38" style="edgeStyle=orthogonalEdgeStyle;rounded=0;orthogonalLoop=1;jettySize=auto;html=1;exitX=1;exitY=1;exitDx=0;exitDy=0;entryX=0;entryY=1;entryDx=0;entryDy=0;" edge="1" parent="1" source="LuI5FTJY5WwARPnOgoLh-34" target="LuI5FTJY5WwARPnOgoLh-37">
          <mxGeometry relative="1" as="geometry" />
        </mxCell>
        <mxCell id="LuI5FTJY5WwARPnOgoLh-34" value="&lt;span style=&quot;font-size: 18px;&quot;&gt;smc&lt;/span&gt;" style="shape=ellipse;html=1;dashed=0;whiteSpace=wrap;aspect=fixed;perimeter=ellipsePerimeter;" vertex="1" parent="1">
          <mxGeometry x="480" y="-280" width="120" height="120" as="geometry" />
        </mxCell>
        <mxCell id="LuI5FTJY5WwARPnOgoLh-36" value="&lt;font style=&quot;font-size: 18px;&quot;&gt;*&lt;/font&gt;" style="text;html=1;align=center;verticalAlign=middle;whiteSpace=wrap;rounded=0;" vertex="1" parent="1">
          <mxGeometry x="395" y="-250" width="60" height="30" as="geometry" />
        </mxCell>
        <mxCell id="LuI5FTJY5WwARPnOgoLh-39" style="edgeStyle=orthogonalEdgeStyle;rounded=0;orthogonalLoop=1;jettySize=auto;html=1;exitX=0;exitY=0;exitDx=0;exitDy=0;entryX=1;entryY=0;entryDx=0;entryDy=0;" edge="1" parent="1" source="LuI5FTJY5WwARPnOgoLh-37" target="LuI5FTJY5WwARPnOgoLh-34">
          <mxGeometry relative="1" as="geometry" />
        </mxCell>
        <mxCell id="LuI5FTJY5WwARPnOgoLh-50" style="edgeStyle=orthogonalEdgeStyle;rounded=0;orthogonalLoop=1;jettySize=auto;html=1;exitX=1;exitY=0.5;exitDx=0;exitDy=0;entryX=0.5;entryY=0;entryDx=0;entryDy=0;" edge="1" parent="1" source="LuI5FTJY5WwARPnOgoLh-37" target="LuI5FTJY5WwARPnOgoLh-12">
          <mxGeometry relative="1" as="geometry" />
        </mxCell>
        <mxCell id="LuI5FTJY5WwARPnOgoLh-37" value="&lt;font style=&quot;font-size: 18px;&quot;&gt;mmc&lt;/font&gt;" style="shape=ellipse;html=1;dashed=0;whiteSpace=wrap;aspect=fixed;perimeter=ellipsePerimeter;" vertex="1" parent="1">
          <mxGeometry x="720" y="-280" width="120" height="120" as="geometry" />
        </mxCell>
        <mxCell id="LuI5FTJY5WwARPnOgoLh-40" value="&lt;font style=&quot;font-size: 18px;&quot;&gt;*&lt;/font&gt;" style="text;html=1;align=center;verticalAlign=middle;whiteSpace=wrap;rounded=0;" vertex="1" parent="1">
          <mxGeometry x="630" y="-210" width="60" height="30" as="geometry" />
        </mxCell>
        <mxCell id="LuI5FTJY5WwARPnOgoLh-41" value="&lt;font style=&quot;font-size: 18px;&quot;&gt;else&lt;/font&gt;" style="text;html=1;align=center;verticalAlign=middle;whiteSpace=wrap;rounded=0;" vertex="1" parent="1">
          <mxGeometry x="630" y="-290" width="60" height="30" as="geometry" />
        </mxCell>
        <mxCell id="LuI5FTJY5WwARPnOgoLh-42" style="edgeStyle=orthogonalEdgeStyle;rounded=0;orthogonalLoop=1;jettySize=auto;html=1;exitX=0.5;exitY=1;exitDx=0;exitDy=0;entryX=0;entryY=1;entryDx=0;entryDy=0;" edge="1" parent="1" source="LuI5FTJY5WwARPnOgoLh-34" target="LuI5FTJY5WwARPnOgoLh-34">
          <mxGeometry relative="1" as="geometry">
            <Array as="points">
              <mxPoint x="540" y="-120" />
              <mxPoint x="498" y="-120" />
            </Array>
          </mxGeometry>
        </mxCell>
        <mxCell id="LuI5FTJY5WwARPnOgoLh-43" value="&lt;font style=&quot;font-size: 18px;&quot;&gt;else&lt;/font&gt;" style="text;html=1;align=center;verticalAlign=middle;whiteSpace=wrap;rounded=0;" vertex="1" parent="1">
          <mxGeometry x="490" y="-120" width="60" height="30" as="geometry" />
        </mxCell>
        <mxCell id="LuI5FTJY5WwARPnOgoLh-44" style="edgeStyle=orthogonalEdgeStyle;rounded=0;orthogonalLoop=1;jettySize=auto;html=1;exitX=1;exitY=0;exitDx=0;exitDy=0;entryX=0.5;entryY=0;entryDx=0;entryDy=0;" edge="1" parent="1" source="LuI5FTJY5WwARPnOgoLh-31" target="LuI5FTJY5WwARPnOgoLh-31">
          <mxGeometry relative="1" as="geometry">
            <Array as="points">
              <mxPoint x="582" y="-660" />
              <mxPoint x="540" y="-660" />
            </Array>
          </mxGeometry>
        </mxCell>
        <mxCell id="LuI5FTJY5WwARPnOgoLh-45" value="&lt;font style=&quot;font-size: 18px;&quot;&gt;else&lt;/font&gt;" style="text;html=1;align=center;verticalAlign=middle;whiteSpace=wrap;rounded=0;" vertex="1" parent="1">
          <mxGeometry x="530" y="-690" width="60" height="30" as="geometry" />
        </mxCell>
        <mxCell id="LuI5FTJY5WwARPnOgoLh-52" value="&lt;font style=&quot;font-size: 18px;&quot;&gt;&quot;&lt;/font&gt;" style="text;html=1;align=center;verticalAlign=middle;whiteSpace=wrap;rounded=0;" vertex="1" parent="1">
          <mxGeometry x="510" y="150" width="60" height="30" as="geometry" />
        </mxCell>
        <mxCell id="LuI5FTJY5WwARPnOgoLh-53" value="&lt;font style=&quot;font-size: 18px;&quot;&gt;{,(,&#39;,&#39;,;,[,=,.,-,*,/,&amp;amp;,|,&amp;lt;,&amp;gt;,],)&lt;/font&gt;" style="text;html=1;align=center;verticalAlign=middle;whiteSpace=wrap;rounded=0;" vertex="1" parent="1">
          <mxGeometry x="485" y="390" width="225" height="30" as="geometry" />
        </mxCell>
        <mxCell id="LuI5FTJY5WwARPnOgoLh-54" value="&lt;font style=&quot;font-size: 18px;&quot;&gt;+,-,*,/,&amp;amp;,|,&amp;lt;,&amp;gt;,=,],;,),&#39;,&#39;&lt;/font&gt;" style="text;html=1;align=center;verticalAlign=middle;whiteSpace=wrap;rounded=0;" vertex="1" parent="1">
          <mxGeometry x="485" y="630" width="175" height="30" as="geometry" />
        </mxCell>
        <mxCell id="LuI5FTJY5WwARPnOgoLh-56" value="&lt;font style=&quot;font-size: 18px;&quot;&gt;/&lt;/font&gt;" style="text;html=1;align=center;verticalAlign=middle;whiteSpace=wrap;rounded=0;" vertex="1" parent="1">
          <mxGeometry x="880" y="-250" width="60" height="30" as="geometry" />
        </mxCell>
        <mxCell id="LuI5FTJY5WwARPnOgoLh-57" value="&lt;font style=&quot;font-size: 18px;&quot;&gt;LR,CF&lt;/font&gt;" style="text;html=1;align=center;verticalAlign=middle;whiteSpace=wrap;rounded=0;" vertex="1" parent="1">
          <mxGeometry x="670" y="-570" width="60" height="30" as="geometry" />
        </mxCell>
        <mxCell id="LuI5FTJY5WwARPnOgoLh-59" value="&lt;font style=&quot;font-size: 18px;&quot;&gt;else&lt;/font&gt;" style="text;html=1;align=center;verticalAlign=middle;whiteSpace=wrap;rounded=0;" vertex="1" parent="1">
          <mxGeometry x="485" y="-410" width="60" height="30" as="geometry" />
        </mxCell>
        <mxCell id="LuI5FTJY5WwARPnOgoLh-60" value="&lt;font style=&quot;font-size: 18px;&quot;&gt;error&lt;/font&gt;" style="ellipse;shape=doubleEllipse;html=1;dashed=0;whiteSpace=wrap;aspect=fixed;" vertex="1" parent="1">
          <mxGeometry x="600" y="490" width="120" height="120" as="geometry" />
        </mxCell>
        <mxCell id="LuI5FTJY5WwARPnOgoLh-62" value="&lt;font style=&quot;font-size: 18px;&quot;&gt;else&lt;/font&gt;" style="text;html=1;align=center;verticalAlign=middle;whiteSpace=wrap;rounded=0;" vertex="1" parent="1">
          <mxGeometry x="510" y="520" width="60" height="30" as="geometry" />
        </mxCell>
        <mxCell id="LuI5FTJY5WwARPnOgoLh-63" value="&lt;font style=&quot;font-size: 18px;&quot;&gt;error&lt;/font&gt;" style="ellipse;shape=doubleEllipse;html=1;dashed=0;whiteSpace=wrap;aspect=fixed;" vertex="1" parent="1">
          <mxGeometry x="600" y="240" width="120" height="120" as="geometry" />
        </mxCell>
        <mxCell id="LuI5FTJY5WwARPnOgoLh-65" value="&lt;font style=&quot;font-size: 18px;&quot;&gt;else&lt;/font&gt;" style="text;html=1;align=center;verticalAlign=middle;whiteSpace=wrap;rounded=0;" vertex="1" parent="1">
          <mxGeometry x="440" y="300" width="60" height="30" as="geometry" />
        </mxCell>
        <mxCell id="LuI5FTJY5WwARPnOgoLh-68" value="&lt;font style=&quot;font-size: 18px;&quot;&gt;error&lt;/font&gt;" style="ellipse;shape=doubleEllipse;html=1;dashed=0;whiteSpace=wrap;aspect=fixed;" vertex="1" parent="1">
          <mxGeometry x="395" y="920" width="120" height="120" as="geometry" />
        </mxCell>
        <mxCell id="LuI5FTJY5WwARPnOgoLh-70" value="&lt;font style=&quot;font-size: 18px;&quot;&gt;else&lt;/font&gt;" style="text;html=1;align=center;verticalAlign=middle;whiteSpace=wrap;rounded=0;" vertex="1" parent="1">
          <mxGeometry x="220" y="950" width="60" height="30" as="geometry" />
        </mxCell>
      </root>
    </mxGraphModel>
  </diagram>
</mxfile>
